<?xml version="1.0" encoding="UTF-8" standalone="no"?>
<!DOCTYPE svg PUBLIC "-//W3C//DTD SVG 1.1//EN" "http://www.w3.org/Graphics/SVG/1.1/DTD/svg11.dtd">
<svg width="100%" height="100%" viewBox="0 0 1087 254" version="1.1" xmlns="http://www.w3.org/2000/svg" xmlns:xlink="http://www.w3.org/1999/xlink" xml:space="preserve" xmlns:serif="http://www.serif.com/" style="fill-rule:evenodd;clip-rule:evenodd;stroke-linejoin:round;stroke-miterlimit:2;">
    <g transform="matrix(1,0,0,1,-176.894,-156.202)">
        <path d="M376.467,342.449L376.467,405.95L322.037,405.95L322.037,342.449C322.037,333.379 317.503,328.843 312.968,328.843C308.432,328.843 303.896,333.379 303.896,342.449L303.896,405.95L249.466,405.95L249.466,342.449C249.466,333.379 244.932,328.843 240.396,328.843C235.86,328.843 231.324,333.379 231.324,342.449L231.324,405.95L176.894,405.95L176.894,285.755L229.056,285.755L233.592,299.362C233.592,299.362 242.664,282.352 265.343,282.352C288.02,282.352 299.362,303.898 299.362,303.898C299.362,303.898 312.968,282.352 335.647,282.352C358.324,282.352 376.467,300.497 376.467,342.449" style="fill:rgb(41,63,84);fill-rule:nonzero;"/>
    </g>
    <g transform="matrix(1,0,0,1,-176.894,-156.202)">
        <path d="M451.285,405.95L396.855,405.95L396.855,285.754L451.285,285.754L451.285,405.95ZM396.855,229.056L451.285,229.056L451.285,272.147L396.855,272.147L396.855,229.056Z" style="fill:rgb(41,63,84);fill-rule:nonzero;"/>
    </g>
    <g transform="matrix(1,0,0,1,-176.894,-156.202)">
        <path d="M612.296,229.056L612.296,281.218L569.206,281.218L569.206,405.95L510.242,405.95L510.242,281.218L467.153,281.218L467.153,229.056L612.296,229.056Z" style="fill:rgb(0,178,166);fill-rule:nonzero;"/>
        <path d="M682.586,405.95L628.156,405.95L628.156,285.754L682.586,285.754L682.586,405.95ZM628.156,229.056L682.586,229.056L682.586,272.147L628.156,272.147L628.156,229.056Z" style="fill:rgb(0,178,166);fill-rule:nonzero;"/>
        <path d="M774.425,335.646C774.425,326.576 769.889,322.038 764.218,322.038C758.55,322.038 754.014,326.576 754.014,335.646L774.425,335.646ZM827.72,345.85L827.72,357.192L755.149,357.192C755.149,357.192 757.417,369.662 775.56,369.662C786.898,369.662 795.971,360.593 795.971,360.593L815.248,391.207C815.248,391.207 798.239,409.352 767.621,409.352C729.069,409.352 700.719,381.004 700.719,345.85C700.719,310.7 729.069,282.352 764.218,282.352C799.372,282.352 827.72,310.7 827.72,345.85" style="fill:rgb(0,178,166);fill-rule:nonzero;"/>
        <path d="M970.58,342.449L970.58,405.95L916.15,405.95L916.15,342.449C916.15,333.379 911.616,328.843 907.078,328.843C902.542,328.843 898.008,333.379 898.008,342.449L898.008,405.95L843.578,405.95L843.578,285.755L895.74,285.755L900.276,299.362C900.276,299.362 909.346,282.352 929.759,282.352C952.436,282.352 970.58,300.497 970.58,342.449" style="fill:rgb(0,178,166);fill-rule:nonzero;"/>
        <path d="M1055.61,362.859C1062.41,362.859 1068.08,357.191 1068.08,345.851C1068.08,334.513 1062.41,328.843 1055.61,328.843C1048.8,328.843 1043.13,334.513 1043.13,345.851C1043.13,357.191 1048.8,362.859 1055.61,362.859M1034.06,282.353C1056.74,282.353 1065.81,299.362 1065.81,299.362L1065.81,229.056L1120.24,229.056L1120.24,405.95L1070.35,405.95L1065.81,392.344C1065.81,392.344 1056.74,409.351 1034.06,409.351C1009.12,409.351 986.439,386.674 986.439,345.851C986.439,305.03 1009.12,282.353 1034.06,282.353" style="fill:rgb(0,178,166);fill-rule:nonzero;"/>
        <path d="M1208.68,353.79C1196.21,353.79 1190.54,359.458 1190.54,366.26C1190.54,369.663 1193.94,373.068 1197.34,373.068C1203.01,373.068 1208.68,367.395 1208.68,353.79M1263.11,345.851L1263.11,405.95L1210.95,405.95L1206.41,392.344C1206.41,392.344 1197.34,409.351 1176.93,409.351C1151.98,409.351 1136.11,393.479 1136.11,371.933C1136.11,350.389 1151.98,334.513 1190.54,334.513L1208.68,334.513C1208.68,334.513 1206.41,322.039 1188.27,322.039C1176.93,322.039 1167.86,331.112 1167.86,331.112L1148.58,300.496C1148.58,300.496 1165.59,282.353 1196.21,282.353C1234.76,282.353 1263.11,310.701 1263.11,345.851" style="fill:rgb(0,178,166);fill-rule:nonzero;"/>
        <path d="M764.15,229.056C764.15,249.317 780.573,265.739 800.834,265.739C821.093,265.739 837.518,249.317 837.518,229.056L845.049,156.202L786.743,156.202L764.15,229.056Z" style="fill:rgb(0,178,166);fill-rule:nonzero;"/>
        <path d="M961.658,156.203L903.354,156.203L910.886,229.056C910.886,249.316 927.311,265.738 947.57,265.738C967.829,265.738 984.253,249.316 984.253,229.056L961.658,156.203Z" style="fill:rgb(0,178,166);fill-rule:nonzero;"/>
    </g>
    <g transform="matrix(1,0,0,1,-176.894,-156.202)">
        <path d="M690.782,229.056C690.782,241.828 707.206,265.739 727.466,265.739C747.725,265.739 764.151,241.828 764.151,229.056L786.744,156.202L728.438,156.202L690.782,229.056Z" style="fill:rgb(41,63,84);fill-rule:nonzero;"/>
    </g>
    <g transform="matrix(1,0,0,1,-176.894,-156.202)">
        <path d="M845.049,156.203L837.517,229.056C837.517,241.829 853.941,265.738 874.203,265.738C894.46,265.738 910.886,241.829 910.886,229.056L903.353,156.203L845.049,156.203Z" style="fill:rgb(41,63,84);fill-rule:nonzero;"/>
    </g>
    <g transform="matrix(1,0,0,1,-176.894,-156.202)">
        <path d="M1019.97,156.203L961.664,156.203L984.259,229.056C984.259,241.829 1000.68,265.738 1020.94,265.738C1041.2,265.738 1057.63,241.829 1057.63,229.056L1019.97,156.203Z" style="fill:rgb(41,63,84);fill-rule:nonzero;"/>
    </g>
</svg>
